<svg width="390" height="844" viewBox="0 0 390 844" fill="none" xmlns="http://www.w3.org/2000/svg">
<g clip-path="url(#clip0_633_2128)">
<rect width="390" height="844" fill="#0C5679"/>
<path d="M30 874C46.5685 874 60 860.569 60 844H30V874Z" fill="#FFE7BD"/>
<path d="M0 844C0 860.569 13.4315 874 30 874V844V814C13.4315 814 0 827.431 0 844Z" fill="#FFE7BD"/>
<path d="M30 814C46.5685 814 60 827.431 60 844C36.24 844 30.1 824 30 814Z" fill="#0B0835"/>
<rect y="754" width="30" height="60" fill="#F28A0F"/>
<path fill-rule="evenodd" clip-rule="evenodd" d="M90 844V814L60 844H90Z" fill="#3F8A8C"/>
<path fill-rule="evenodd" clip-rule="evenodd" d="M-3.8147e-06 754H60L-3.8147e-06 694L-3.8147e-06 754Z" fill="#3F8A8C"/>
<path fill-rule="evenodd" clip-rule="evenodd" d="M90 844H120L90 814V844Z" fill="#0B0835"/>
<path fill-rule="evenodd" clip-rule="evenodd" d="M30 814C46.5685 814 60 800.569 60 784C60 767.431 46.5685 754 30 754V814Z" fill="#F28A0F"/>
<path fill-rule="evenodd" clip-rule="evenodd" d="M120 784V754H90C73.4315 754 60 767.431 60 784C60 800.569 73.4315 814 90 814C106.569 814 120 800.569 120 784Z" fill="#E5340B"/>
<path fill-rule="evenodd" clip-rule="evenodd" d="M288.663 98.3603C288.585 85.2648 277.945 74.6729 264.831 74.6729C251.717 74.6729 241.077 85.2648 241 98.3603H288.663Z" fill="#0B0835"/>
<path fill-rule="evenodd" clip-rule="evenodd" d="M336.327 47.6641C331.743 47.6913 328.036 51.4153 328.036 56.0052C328.036 60.5951 331.743 64.3191 336.327 64.3463V47.6641Z" fill="#FFE7BD"/>
<path fill-rule="evenodd" clip-rule="evenodd" d="M252.915 62.756C252.915 43.0853 268.803 27.1254 288.446 27.0088V62.757H252.915C252.915 62.7567 252.915 62.7563 252.915 62.756Z" fill="#FFE7BD"/>
<path fill-rule="evenodd" clip-rule="evenodd" d="M360.159 23.8311C377.208 23.8311 391.04 37.6009 391.141 54.6254L360.159 54.6254L360.159 23.8311C360.159 23.8311 360.159 23.8311 360.159 23.8311Z" fill="#E5340B"/>
<path fill-rule="evenodd" clip-rule="evenodd" d="M336.327 47.4939V0H288.833L336.327 47.4939ZM288.832 0H288.663V0.169117L288.832 0Z" fill="#E5340B"/>
<path fill-rule="evenodd" clip-rule="evenodd" d="M360.159 98.5049H374.509V98.4537L374.458 98.5043L360.159 84.2049V98.5049Z" fill="#F28A0F"/>
<path fill-rule="evenodd" clip-rule="evenodd" d="M288.663 62.6299L324.41 62.6299V62.5025L324.283 62.6296L288.663 27.009V62.6299Z" fill="#3F8A8C"/>
<rect x="360.158" y="53.2246" width="30.9813" height="30.9813" fill="#3F8A8C"/>
<path d="M324.411 77.8506C313.442 77.8506 304.551 86.7421 304.551 97.7104H324.411V77.8506Z" fill="#0B0835"/>
<path fill-rule="evenodd" clip-rule="evenodd" d="M344.27 97.7104C344.27 108.679 335.379 117.57 324.411 117.57V97.7104H344.27Z" fill="#F28A0F"/>
<path d="M324.411 117.57C313.442 117.57 304.551 108.679 304.551 97.7104C320.121 97.7104 324.278 110.95 324.411 117.57Z" fill="#FFE7BD"/>
<path d="M344.27 97.7104C344.27 86.7421 335.379 77.8506 324.411 77.8506V97.7104H344.27Z" fill="#0B0835"/>
<path fill-rule="evenodd" clip-rule="evenodd" d="M324.41 134.253C344.153 134.253 360.158 118.248 360.158 98.5049C379.901 98.5049 395.905 114.51 395.905 134.253C395.905 153.995 379.901 170 360.158 170C340.415 170 324.41 153.995 324.41 134.253M324.41 134.253C324.41 134.253 324.41 134.253 324.41 134.253H324.41Z" fill="#E5340B"/>
<rect x="360.158" y="170" width="23.8318" height="47.6636" transform="rotate(-90 360.158 170)" fill="#E5340B"/>
<path d="M288.663 98.5049C268.92 98.5049 252.915 114.51 252.915 134.253H288.663V98.5049Z" fill="#F28A0F"/>
<path d="M288.663 98.5049V134.253H324.41C304.667 134.253 288.663 118.248 288.663 98.5049Z" fill="#3F8A8C"/>
<path d="M324.41 62.7568H288.662V98.5045C288.662 78.7616 304.667 62.7568 324.41 62.7568Z" fill="#E5340B"/>
<path d="M391.14 35.748V0.00038147L355.392 0.00038147C375.135 0.00038147 391.14 16.0052 391.14 35.748Z" fill="#0B0835"/>
<path d="M30 874C46.5685 874 60 860.569 60 844H30V874Z" fill="#FFE7BD"/>
<path d="M0 844C0 860.569 13.4315 874 30 874V844V814C13.4315 814 0 827.431 0 844Z" fill="#FFE7BD"/>
<path d="M30 814C46.5685 814 60 827.431 60 844C36.24 844 30.1 824 30 814Z" fill="#0B0835"/>
<rect y="754" width="30" height="60" fill="#F28A0F"/>
<path fill-rule="evenodd" clip-rule="evenodd" d="M90 844V814L60 844H90Z" fill="#3F8A8C"/>
<path fill-rule="evenodd" clip-rule="evenodd" d="M-2.38419e-06 754H60L-2.38419e-06 694L-2.38419e-06 754Z" fill="#3F8A8C"/>
<path fill-rule="evenodd" clip-rule="evenodd" d="M90 844H120L90 814V844Z" fill="#0B0835"/>
<path fill-rule="evenodd" clip-rule="evenodd" d="M30 814C46.5685 814 60 800.569 60 784C60 767.431 46.5685 754 30 754V814Z" fill="#F28A0F"/>
<path fill-rule="evenodd" clip-rule="evenodd" d="M120 784V754H90C73.4315 754 60 767.431 60 784C60 800.569 73.4315 814 90 814C106.569 814 120 800.569 120 784Z" fill="#E5340B"/>
<path d="M277.236 691.471H284.755C284.788 691.479 284.804 691.495 284.804 691.52V694.522C284.804 694.555 284.788 694.571 284.755 694.571H277.761C276.988 694.571 276.483 694.828 276.247 695.34C276.182 695.462 276.133 695.662 276.101 695.938C276.101 696.573 276.455 697.017 277.163 697.269C277.277 697.285 277.37 697.293 277.443 697.293H281.203C283.506 697.293 285.276 698.294 286.513 700.296C286.993 701.232 287.233 702.075 287.233 702.823V703.495C287.233 704.78 286.672 706.054 285.549 707.315C284.287 708.438 283.014 709 281.728 709H273.049C273.016 709 273 708.984 273 708.951V705.948C273.008 705.916 273.024 705.899 273.049 705.899H281.325C282.611 705.899 283.514 705.248 284.035 703.946C284.1 703.588 284.133 703.332 284.133 703.177C284.133 702.07 283.596 701.236 282.521 700.675C282.188 700.504 281.773 700.418 281.276 700.418H277.419C275.922 700.418 274.681 699.735 273.696 698.368C273.232 697.595 273 696.842 273 696.109V695.707C273 694.754 273.395 693.814 274.184 692.887C275.161 691.943 276.178 691.471 277.236 691.471ZM289.76 691.532H289.956C290.566 691.532 291.038 691.886 291.372 692.594C291.42 692.773 291.445 692.907 291.445 692.997V693.192C291.445 693.802 291.107 694.27 290.432 694.596C290.269 694.661 290.102 694.693 289.931 694.693H289.736C289.15 694.693 288.69 694.339 288.356 693.631C288.308 693.477 288.283 693.338 288.283 693.216V693.021C288.283 692.403 288.637 691.931 289.345 691.605C289.5 691.556 289.638 691.532 289.76 691.532ZM288.356 697.33H291.372C291.404 697.338 291.42 697.354 291.42 697.379V708.951C291.42 708.984 291.404 709 291.372 709H288.356C288.324 709 288.308 708.984 288.308 708.951V697.379C288.316 697.346 288.332 697.33 288.356 697.33ZM298.317 697.232H298.732C300.246 697.232 301.634 697.871 302.895 699.149C303.912 700.329 304.421 701.627 304.421 703.043V708.951C304.421 708.984 304.405 709 304.372 709H301.333C301.3 709 301.284 708.984 301.284 708.951V703.043C301.284 702.05 300.783 701.253 299.782 700.65C299.375 700.463 299.009 700.37 298.684 700.37H298.562C298.545 700.37 298.537 700.361 298.537 700.345L298.488 700.37H298.391C297.471 700.37 296.706 700.854 296.096 701.822C295.876 702.172 295.766 702.787 295.766 703.666V708.951C295.766 708.984 295.75 709 295.717 709H292.702C292.67 709 292.653 708.984 292.653 708.951V702.921C292.653 701.44 293.276 700.06 294.521 698.783C295.75 697.749 297.015 697.232 298.317 697.232ZM311.257 696.585H311.684C313.181 696.585 314.557 697.22 315.81 698.49C316.819 699.662 317.324 700.947 317.324 702.347V708.292C317.324 710.204 316.481 711.804 314.797 713.089C313.747 713.765 312.673 714.103 311.574 714.103H308.12C308.087 714.103 308.071 714.086 308.071 714.054V711.039C308.071 711.006 308.087 710.99 308.12 710.99H311.55C312.518 710.99 313.304 710.501 313.906 709.525C314.101 709.11 314.199 708.707 314.199 708.316V707.596C313.336 708.044 312.437 708.268 311.501 708.268H311.403C309.963 708.268 308.653 707.739 307.473 706.681C306.252 705.444 305.642 704.093 305.642 702.628V702.201C305.642 700.744 306.268 699.377 307.521 698.099C308.734 697.09 309.979 696.585 311.257 696.585ZM311.428 699.698H311.33C310.427 699.698 309.67 700.178 309.06 701.139C308.84 701.611 308.73 702.038 308.73 702.42C308.73 703.486 309.259 704.312 310.317 704.898C310.699 705.061 311.062 705.143 311.403 705.143H311.525C312.535 705.143 313.328 704.65 313.906 703.666C314.101 703.283 314.199 702.884 314.199 702.469V702.347C314.199 701.362 313.706 700.573 312.722 699.979C312.315 699.792 311.949 699.698 311.623 699.698H311.501C311.485 699.698 311.477 699.69 311.477 699.674L311.428 699.698ZM318.581 691.483H321.572C321.604 691.491 321.621 691.507 321.621 691.532V702.665C321.621 703.641 321.787 704.325 322.121 704.715C322.658 705.513 323.484 705.912 324.599 705.912H327.712C327.744 705.912 327.761 705.928 327.761 705.96V708.951C327.761 708.984 327.744 709 327.712 709H324.123C322.788 709 321.511 708.455 320.29 707.364C319.118 706.127 318.532 704.801 318.532 703.385V691.532C318.54 691.499 318.557 691.483 318.581 691.483Z" fill="white"/>
<path d="M277.236 691.471H284.755C284.788 691.479 284.804 691.495 284.804 691.52V694.522C284.804 694.555 284.788 694.571 284.755 694.571H277.761C276.988 694.571 276.483 694.828 276.247 695.34C276.182 695.462 276.133 695.662 276.101 695.938C276.101 696.573 276.455 697.017 277.163 697.269C277.277 697.285 277.37 697.293 277.443 697.293H281.203C283.506 697.293 285.276 698.294 286.513 700.296C286.993 701.232 287.233 702.075 287.233 702.823V703.495C287.233 704.78 286.672 706.054 285.549 707.315C284.287 708.438 283.014 709 281.728 709H273.049C273.016 709 273 708.984 273 708.951V705.948C273.008 705.916 273.024 705.899 273.049 705.899H281.325C282.611 705.899 283.514 705.248 284.035 703.946C284.1 703.588 284.133 703.332 284.133 703.177C284.133 702.07 283.596 701.236 282.521 700.675C282.188 700.504 281.773 700.418 281.276 700.418H277.419C275.922 700.418 274.681 699.735 273.696 698.368C273.232 697.595 273 696.842 273 696.109V695.707C273 694.754 273.395 693.814 274.184 692.887C275.161 691.943 276.178 691.471 277.236 691.471ZM289.76 691.532H289.956C290.566 691.532 291.038 691.886 291.372 692.594C291.42 692.773 291.445 692.907 291.445 692.997V693.192C291.445 693.802 291.107 694.27 290.432 694.596C290.269 694.661 290.102 694.693 289.931 694.693H289.736C289.15 694.693 288.69 694.339 288.356 693.631C288.308 693.477 288.283 693.338 288.283 693.216V693.021C288.283 692.403 288.637 691.931 289.345 691.605C289.5 691.556 289.638 691.532 289.76 691.532ZM288.356 697.33H291.372C291.404 697.338 291.42 697.354 291.42 697.379V708.951C291.42 708.984 291.404 709 291.372 709H288.356C288.324 709 288.308 708.984 288.308 708.951V697.379C288.316 697.346 288.332 697.33 288.356 697.33ZM298.317 697.232H298.732C300.246 697.232 301.634 697.871 302.895 699.149C303.912 700.329 304.421 701.627 304.421 703.043V708.951C304.421 708.984 304.405 709 304.372 709H301.333C301.3 709 301.284 708.984 301.284 708.951V703.043C301.284 702.05 300.783 701.253 299.782 700.65C299.375 700.463 299.009 700.37 298.684 700.37H298.562C298.545 700.37 298.537 700.361 298.537 700.345L298.488 700.37H298.391C297.471 700.37 296.706 700.854 296.096 701.822C295.876 702.172 295.766 702.787 295.766 703.666V708.951C295.766 708.984 295.75 709 295.717 709H292.702C292.67 709 292.653 708.984 292.653 708.951V702.921C292.653 701.44 293.276 700.06 294.521 698.783C295.75 697.749 297.015 697.232 298.317 697.232ZM311.257 696.585H311.684C313.181 696.585 314.557 697.22 315.81 698.49C316.819 699.662 317.324 700.947 317.324 702.347V708.292C317.324 710.204 316.481 711.804 314.797 713.089C313.747 713.765 312.673 714.103 311.574 714.103H308.12C308.087 714.103 308.071 714.086 308.071 714.054V711.039C308.071 711.006 308.087 710.99 308.12 710.99H311.55C312.518 710.99 313.304 710.501 313.906 709.525C314.101 709.11 314.199 708.707 314.199 708.316V707.596C313.336 708.044 312.437 708.268 311.501 708.268H311.403C309.963 708.268 308.653 707.739 307.473 706.681C306.252 705.444 305.642 704.093 305.642 702.628V702.201C305.642 700.744 306.268 699.377 307.521 698.099C308.734 697.09 309.979 696.585 311.257 696.585ZM311.428 699.698H311.33C310.427 699.698 309.67 700.178 309.06 701.139C308.84 701.611 308.73 702.038 308.73 702.42C308.73 703.486 309.259 704.312 310.317 704.898C310.699 705.061 311.062 705.143 311.403 705.143H311.525C312.535 705.143 313.328 704.65 313.906 703.666C314.101 703.283 314.199 702.884 314.199 702.469V702.347C314.199 701.362 313.706 700.573 312.722 699.979C312.315 699.792 311.949 699.698 311.623 699.698H311.501C311.485 699.698 311.477 699.69 311.477 699.674L311.428 699.698ZM318.581 691.483H321.572C321.604 691.491 321.621 691.507 321.621 691.532V702.665C321.621 703.641 321.787 704.325 322.121 704.715C322.658 705.513 323.484 705.912 324.599 705.912H327.712C327.744 705.912 327.761 705.928 327.761 705.96V708.951C327.761 708.984 327.744 709 327.712 709H324.123C322.788 709 321.511 708.455 320.29 707.364C319.118 706.127 318.532 704.801 318.532 703.385V691.532C318.54 691.499 318.557 691.483 318.581 691.483Z" fill="white"/>
<path fill-rule="evenodd" clip-rule="evenodd" d="M340.343 702.636H333.99V700.903L340.343 702.636Z" fill="white"/>
<path fill-rule="evenodd" clip-rule="evenodd" d="M340.178 708.824C336.761 708.824 333.99 706.054 333.99 702.636H340.343L346.161 704.223C345.46 706.872 343.047 708.824 340.178 708.824Z" fill="white"/>
<path fill-rule="evenodd" clip-rule="evenodd" d="M339.86 695.188H346.213V696.921L339.86 695.188Z" fill="white"/>
<path fill-rule="evenodd" clip-rule="evenodd" d="M340.025 689C343.443 689 346.213 691.771 346.213 695.188H339.86L334.042 693.601C334.743 690.953 337.156 689 340.025 689Z" fill="white"/>
<path d="M333.992 695.307L343.515 697.948C345.491 698.496 346.649 700.542 346.101 702.518V702.518L336.578 699.877C334.602 699.329 333.444 697.283 333.992 695.307V695.307Z" fill="white"/>
<path fill-rule="evenodd" clip-rule="evenodd" d="M340.179 709.447C339.697 709.447 339.227 709.392 338.776 709.287V710.425H334.915C334.746 710.425 334.579 710.459 334.422 710.523C334.266 710.588 334.124 710.683 334.005 710.802C333.885 710.922 333.791 711.064 333.726 711.22C333.661 711.376 333.628 711.543 333.628 711.712C333.628 711.881 333.661 712.049 333.726 712.205C333.791 712.361 333.885 712.503 334.005 712.623C334.124 712.742 334.266 712.837 334.422 712.902C334.579 712.966 334.746 713 334.915 713H345.212C345.381 713 345.548 712.966 345.705 712.902C345.861 712.837 346.003 712.742 346.122 712.623C346.242 712.503 346.336 712.361 346.401 712.205C346.466 712.049 346.499 711.881 346.499 711.712C346.499 711.543 346.466 711.376 346.401 711.22C346.336 711.064 346.242 710.922 346.122 710.802C346.003 710.683 345.861 710.588 345.705 710.523C345.548 710.459 345.381 710.425 345.212 710.425H341.351V709.336C340.971 709.409 340.58 709.447 340.179 709.447Z" fill="white"/>
</g>
<defs>
<clipPath id="clip0_633_2128">
<rect width="390" height="844" fill="white"/>
</clipPath>
</defs>
</svg>
