<svg width="390" height="844" viewBox="0 0 390 844" fill="none" xmlns="http://www.w3.org/2000/svg">
<g clip-path="url(#clip0_633_2128)">
<rect width="390" height="844" fill="#0C5679"/>
<path d="M30 874C46.5685 874 60 860.569 60 844H30V874Z" fill="#FFE7BD"/>
<path d="M0 844C0 860.569 13.4315 874 30 874V844V814C13.4315 814 0 827.431 0 844Z" fill="#FFE7BD"/>
<path d="M30 814C46.5685 814 60 827.431 60 844C36.24 844 30.1 824 30 814Z" fill="#0B0835"/>
<rect y="754" width="30" height="60" fill="#F28A0F"/>
<path fill-rule="evenodd" clip-rule="evenodd" d="M90 844V814L60 844H90Z" fill="#3F8A8C"/>
<path fill-rule="evenodd" clip-rule="evenodd" d="M-2.38419e-06 754H60L-2.38419e-06 694L-2.38419e-06 754Z" fill="#3F8A8C"/>
<path fill-rule="evenodd" clip-rule="evenodd" d="M90 844H120L90 814V844Z" fill="#0B0835"/>
<path fill-rule="evenodd" clip-rule="evenodd" d="M30 814C46.5685 814 60 800.569 60 784C60 767.431 46.5685 754 30 754V814Z" fill="#F28A0F"/>
<path fill-rule="evenodd" clip-rule="evenodd" d="M120 784V754H90C73.4315 754 60 767.431 60 784C60 800.569 73.4315 814 90 814C106.569 814 120 800.569 120 784Z" fill="#E5340B"/>
<path fill-rule="evenodd" clip-rule="evenodd" d="M288.663 98.3603C288.585 85.2648 277.945 74.6729 264.831 74.6729C251.717 74.6729 241.077 85.2648 241 98.3603H288.663Z" fill="#0B0835"/>
<path fill-rule="evenodd" clip-rule="evenodd" d="M336.327 47.6641C331.743 47.6913 328.036 51.4153 328.036 56.0052C328.036 60.5951 331.743 64.3191 336.327 64.3463V47.6641Z" fill="#FFE7BD"/>
<path fill-rule="evenodd" clip-rule="evenodd" d="M252.915 62.756C252.915 43.0853 268.803 27.1254 288.446 27.0088V62.757H252.915C252.915 62.7567 252.915 62.7563 252.915 62.756Z" fill="#FFE7BD"/>
<path fill-rule="evenodd" clip-rule="evenodd" d="M360.159 23.8311C377.208 23.8311 391.04 37.6009 391.141 54.6254L360.159 54.6254L360.159 23.8311C360.159 23.8311 360.159 23.8311 360.159 23.8311Z" fill="#E5340B"/>
<path fill-rule="evenodd" clip-rule="evenodd" d="M336.327 47.4939V0H288.833L336.327 47.4939ZM288.832 0H288.663V0.169117L288.832 0Z" fill="#E5340B"/>
<path fill-rule="evenodd" clip-rule="evenodd" d="M360.159 98.5049H374.509V98.4537L374.458 98.5043L360.159 84.2049V98.5049Z" fill="#F28A0F"/>
<path fill-rule="evenodd" clip-rule="evenodd" d="M288.663 62.6299L324.41 62.6299V62.5025L324.283 62.6296L288.663 27.009V62.6299Z" fill="#3F8A8C"/>
<rect x="360.158" y="53.2246" width="30.9813" height="30.9813" fill="#3F8A8C"/>
<path d="M324.411 77.8506C313.442 77.8506 304.551 86.7421 304.551 97.7104H324.411V77.8506Z" fill="#0B0835"/>
<path fill-rule="evenodd" clip-rule="evenodd" d="M344.27 97.7104C344.27 108.679 335.379 117.57 324.411 117.57V97.7104H344.27Z" fill="#F28A0F"/>
<path d="M324.411 117.57C313.442 117.57 304.551 108.679 304.551 97.7104C320.121 97.7104 324.278 110.95 324.411 117.57Z" fill="#FFE7BD"/>
<path d="M344.27 97.7104C344.27 86.7421 335.379 77.8506 324.411 77.8506V97.7104H344.27Z" fill="#0B0835"/>
<path fill-rule="evenodd" clip-rule="evenodd" d="M324.41 134.253C344.153 134.253 360.158 118.248 360.158 98.5049C379.901 98.5049 395.905 114.51 395.905 134.253C395.905 153.995 379.901 170 360.158 170C340.415 170 324.41 153.995 324.41 134.253M324.41 134.253C324.41 134.253 324.41 134.253 324.41 134.253Z" fill="#E5340B"/>
<rect x="360.158" y="170" width="23.8318" height="47.6636" transform="rotate(-90 360.158 170)" fill="#E5340B"/>
<path d="M288.663 98.5049C268.92 98.5049 252.915 114.51 252.915 134.253H288.663V98.5049Z" fill="#F28A0F"/>
<path d="M288.663 98.5049V134.253H324.41C304.667 134.253 288.663 118.248 288.663 98.5049Z" fill="#3F8A8C"/>
<path d="M324.41 62.7568H288.662V98.5045C288.662 78.7616 304.667 62.7568 324.41 62.7568Z" fill="#E5340B"/>
<path d="M391.14 35.748V0.000380516L355.392 0.000380516C375.135 0.000380516 391.14 16.0052 391.14 35.748Z" fill="#0B0835"/>
</g>
<defs>
<clipPath id="clip0_633_2128">
<rect width="390" height="844" fill="white"/>
</clipPath>
</defs>
</svg>
