<svg width="15" height="22" viewBox="0 0 15 22" fill="none" xmlns="http://www.w3.org/2000/svg">
<path fill-rule="evenodd" clip-rule="evenodd" d="M1 8.33301C1.55228 8.33301 2 8.78072 2 9.33301V10.8886C2 13.7543 4.36058 16.1108 7.25 16.1108C10.1394 16.1108 12.5 13.7543 12.5 10.8886V9.33301C12.5 8.78072 12.9477 8.33301 13.5 8.33301C14.0523 8.33301 14.5 8.78072 14.5 9.33301V10.8886C14.5 14.5288 11.7674 17.5536 8.25 18.0419V19.9997H10.375C10.9273 19.9997 11.375 20.4474 11.375 20.9997C11.375 21.552 10.9273 21.9997 10.375 21.9997H4.125C3.57272 21.9997 3.125 21.552 3.125 20.9997C3.125 20.4474 3.57272 19.9997 4.125 19.9997H6.25V18.0419C2.7326 17.5536 0 14.5288 0 10.8886V9.33301C0 8.78072 0.447715 8.33301 1 8.33301Z" fill="white"/>
<path fill-rule="evenodd" clip-rule="evenodd" d="M7.25226 4.25663e-05C9.79898 0.00109596 12 1.79936 12 4.33336V10.1146C12 12.6399 9.74966 14.5 7.25002 14.5C4.74204 14.5 2.50005 12.5907 2.50005 10.1146V4.33598C2.49717 3.74889 2.62524 3.17046 2.87287 2.63524C3.12071 2.09957 3.48173 1.62114 3.92849 1.22402C4.37502 0.827101 4.89939 0.51819 5.46869 0.310069C6.03725 0.102219 6.64312 -0.0024228 7.25226 4.25663e-05ZM7.24555 2.00003C6.86915 1.99835 6.4983 2.06313 6.15538 2.18849C5.81251 2.31383 5.50811 2.49581 5.25722 2.71883C5.00655 2.94165 4.81531 3.1999 4.688 3.47506C4.56091 3.74974 4.4984 4.03912 4.50003 4.3277L4.50006 4.33336H4.50005V10.1146C4.50005 11.3051 5.65647 12.5 7.25002 12.5C8.85192 12.5 10 11.3393 10 10.1146V4.33336C10 3.11813 8.92108 2.00004 7.25002 2.00004H7.24555V2.00003Z" fill="white"/>
</svg>
