<svg width="20" height="20" viewBox="0 0 20 20" fill="none" xmlns="http://www.w3.org/2000/svg">
<path fill-rule="evenodd" clip-rule="evenodd" d="M3.33366 3.5C3.15685 3.5 2.98728 3.57024 2.86225 3.69526C2.73723 3.82029 2.66699 3.98986 2.66699 4.16667V15.8333C2.66699 16.0101 2.73723 16.1797 2.86225 16.3047C2.98728 16.4298 3.15685 16.5 3.33366 16.5H7.33366V3.5H3.33366ZM1.44804 2.28105C1.94814 1.78095 2.62641 1.5 3.33366 1.5H8.33366C8.88594 1.5 9.33366 1.94772 9.33366 2.5V17.5C9.33366 18.0523 8.88594 18.5 8.33366 18.5H3.33366C2.62641 18.5 1.94814 18.219 1.44804 17.719C0.947944 17.2189 0.666992 16.5406 0.666992 15.8333V4.16667C0.666992 3.45942 0.947944 2.78115 1.44804 2.28105ZM10.667 2.5C10.667 1.94772 11.1147 1.5 11.667 1.5H16.667C17.3742 1.5 18.0525 1.78095 18.5526 2.28105C19.0527 2.78115 19.3337 3.45942 19.3337 4.16667V8.33333C19.3337 8.88562 18.8859 9.33333 18.3337 9.33333H11.667C11.1147 9.33333 10.667 8.88562 10.667 8.33333V2.5ZM12.667 3.5V7.33333H17.3337V4.16667C17.3337 3.98986 17.2634 3.82029 17.1384 3.69526C17.0134 3.57024 16.8438 3.5 16.667 3.5H12.667ZM10.667 11.6667C10.667 11.1144 11.1147 10.6667 11.667 10.6667H18.3337C18.8859 10.6667 19.3337 11.1144 19.3337 11.6667V15.8333C19.3337 16.5406 19.0527 17.2189 18.5526 17.719C18.0525 18.219 17.3742 18.5 16.667 18.5H11.667C11.1147 18.5 10.667 18.0523 10.667 17.5V11.6667ZM12.667 12.6667V16.5H16.667C16.8438 16.5 17.0134 16.4298 17.1384 16.3047C17.2634 16.1797 17.3337 16.0101 17.3337 15.8333V12.6667H12.667Z" fill="white"/>
</svg>
