<svg width="21" height="20" viewBox="0 0 21 20" fill="none" xmlns="http://www.w3.org/2000/svg">
<path d="M20.1489 0.241113C20.0399 0.147574 19.912 0.0786153 19.774 0.0389286C19.6359 -0.000758033 19.491 -0.0102406 19.3489 0.0111263L6.34967 2.01101C6.11294 2.04693 5.89696 2.16659 5.74099 2.34826C5.58502 2.52992 5.4994 2.76152 5.49972 3.00096V13.3504C5.03251 13.1222 4.51976 13.0025 3.9998 13.0004C3.30761 13.0004 2.63096 13.2057 2.05542 13.5902C1.47988 13.9748 1.0313 14.5214 0.766408 15.1609C0.501516 15.8004 0.432209 16.5041 0.567249 17.183C0.70229 17.8619 1.03561 18.4855 1.52507 18.9749C2.01453 19.4644 2.63813 19.7977 3.31703 19.9328C3.99592 20.0678 4.69962 19.9985 5.33912 19.7336C5.97863 19.4687 6.52522 19.0201 6.90978 18.4446C7.29435 17.869 7.49961 17.1924 7.49961 16.5002V8.86063L18.499 7.17072V11.3505C18.0318 11.1223 17.519 11.0026 16.9991 11.0005C16.3069 11.0005 15.6302 11.2058 15.0547 11.5903C14.4791 11.9749 14.0306 12.5215 13.7657 13.161C13.5008 13.8005 13.4315 14.5042 13.5665 15.1831C13.7016 15.862 14.0349 16.4856 14.5243 16.975C15.0138 17.4645 15.6374 17.7978 16.3163 17.9329C16.9952 18.0679 17.6989 17.9986 18.3384 17.7337C18.9779 17.4688 19.5245 17.0202 19.909 16.4447C20.2936 15.8692 20.4989 15.1925 20.4989 14.5003V1.00107C20.4989 0.856638 20.4676 0.713917 20.4072 0.582728C20.3468 0.451539 20.2586 0.334994 20.1489 0.241113ZM3.9998 18.0001C3.70315 18.0001 3.41316 17.9121 3.1665 17.7473C2.91984 17.5825 2.72759 17.3483 2.61406 17.0742C2.50054 16.8001 2.47083 16.4985 2.52871 16.2076C2.58658 15.9166 2.72944 15.6494 2.9392 15.4396C3.14897 15.2298 3.41623 15.087 3.70719 15.0291C3.99814 14.9712 4.29972 15.0009 4.5738 15.1145C4.84787 15.228 5.08212 15.4202 5.24694 15.6669C5.41175 15.9135 5.49972 16.2035 5.49972 16.5002C5.49972 16.898 5.34169 17.2795 5.0604 17.5608C4.77912 17.8421 4.39761 18.0001 3.9998 18.0001ZM16.9991 16.0002C16.7024 16.0002 16.4124 15.9123 16.1658 15.7474C15.9191 15.5826 15.7269 15.3484 15.6133 15.0743C15.4998 14.8002 15.4701 14.4986 15.528 14.2077C15.5858 13.9167 15.7287 13.6495 15.9385 13.4397C16.1482 13.2299 16.4155 13.0871 16.7065 13.0292C16.9974 12.9713 17.299 13.001 17.5731 13.1146C17.8471 13.2281 18.0814 13.4203 18.2462 13.667C18.411 13.9137 18.499 14.2037 18.499 14.5003C18.499 14.8981 18.341 15.2796 18.0597 15.5609C17.7784 15.8422 17.3969 16.0002 16.9991 16.0002ZM18.499 5.14084L7.49961 6.83074V3.83091L18.499 2.171V5.14084Z" fill="#0C5679"/>
</svg>
