<svg width="390" height="844" viewBox="0 0 390 844" fill="none" xmlns="http://www.w3.org/2000/svg">
<rect width="390" height="844" fill="#0C5679"/>
<rect x="60" y="167" width="269" height="480" fill="white"/>
<path d="M120 227H60L60 287C60 253.863 86.8629 227 120 227Z" fill="#FFE7BD"/>
<path fill-rule="evenodd" clip-rule="evenodd" d="M300 617C283.431 617 270 630.431 270 647H330C330 630.431 316.569 617 300 617Z" fill="#E5340B"/>
<path fill-rule="evenodd" clip-rule="evenodd" d="M299 647C282.431 647 269 660.431 269 677H329C329 660.431 315.569 647 299 647Z" fill="#0C5679"/>
<path d="M330 587C313.431 587 300 600.431 300 617L330 617L330 587Z" fill="#E5340B"/>
<path d="M300 617C300 633.569 313.431 647 330 647L330 617L300 617Z" fill="#F28A0F"/>
<path d="M329 347.001C345.569 347.001 359.001 333.569 359.001 317H329V347.001Z" fill="#F28A0F"/>
<path d="M359.001 317C359.001 300.432 345.569 287 329 287V317H359.001Z" fill="#0B0835"/>
<path d="M217.001 647.001C217.001 630.432 203.569 617 187 617L187 647.001L217.001 647.001Z" fill="#0B0835"/>
<path d="M187 617C170.432 617 157 630.432 157 647.001L187 647.001L187 617Z" fill="#3F8A8C"/>
<path d="M329 481C320.716 481 314 487.716 314 496H329V481Z" fill="#FFE7BD"/>
<path d="M314 496C314 504.284 320.716 511 329 511V496H314Z" fill="#3F8A8C"/>
<path fill-rule="evenodd" clip-rule="evenodd" d="M120 197V167H90C73.4315 167 60 180.431 60 197C60 213.569 73.4315 227 90 227C106.569 227 120 213.569 120 197Z" fill="#E5340B"/>
<path fill-rule="evenodd" clip-rule="evenodd" d="M60 137L60 167H90C106.569 167 120 153.569 120 137C120 120.431 106.569 107 90 107C73.4315 107 60 120.431 60 137Z" fill="#3F8A8C"/>
<path fill-rule="evenodd" clip-rule="evenodd" d="M277 132.5V167H311.5C330.554 167 346 151.554 346 132.5C346 113.446 330.554 98 311.5 98C292.446 98 277 113.446 277 132.5Z" fill="#0B0835"/>
<path d="M329.5 254C354.077 254 374 234.077 374 209.5H329.5V254Z" fill="white"/>
<path d="M329.5 165C354.077 165 374 184.923 374 209.5C338.756 209.5 329.648 179.833 329.5 165Z" fill="#F28A0F"/>
<path d="M285 209.5C285 234.077 304.923 254 329.5 254V209.5V165C304.923 165 285 184.923 285 209.5Z" fill="#E5340B"/>
<path d="M30 617C30 600.431 43.4315 587 60 587C60 597 54 617 30 617Z" fill="#E5340B"/>
<path d="M90 617C90 600.431 76.5685 587 60 587V617H90Z" fill="#F28A0F"/>
<path d="M30 617C30 633.569 43.4315 647 60 647V646.579V617H30Z" fill="#3F8A8C"/>
<path d="M60 647C43.4315 647 30 633.569 30 617V647H60Z" fill="#3F8A8C"/>
<path fill-rule="evenodd" clip-rule="evenodd" d="M90 617C90 633.569 76.5685 647 60 647V646.579C60.083 636.45 66.1348 617 90 617Z" fill="#FFE7BD"/>
<path d="M60 387C32.3858 387 10 364.614 10 337C26.6667 337.333 60 347.8 60 387Z" fill="#0B0835"/>
<path d="M60 287C32.3858 287 10 309.386 10 337H60V287Z" fill="#0B0835"/>
<path d="M329 447C356.614 447 379 424.614 379 397C362.333 397.333 329 407.8 329 447Z" fill="#FFE7BD"/>
<path d="M329 347C356.614 347 379 369.386 379 397H329V347Z" fill="#FFE7BD"/>
<path fill-rule="evenodd" clip-rule="evenodd" d="M162.426 125.001L205.004 167.578L204.853 167.73L204.853 167.427L120 167.427L162.426 125.001Z" fill="#FFE7BD"/>
<path fill-rule="evenodd" clip-rule="evenodd" d="M114.578 689.003L72 646.426L72.1514 646.274L72.1514 646.577L157.004 646.577L114.578 689.003Z" fill="#F28A0F"/>
<path fill-rule="evenodd" clip-rule="evenodd" d="M213.787 703.213L157 646.426L157.201 646.225L157.201 646.626L270.373 646.626L213.787 703.213Z" fill="#FFE7BD"/>
<path fill-rule="evenodd" clip-rule="evenodd" d="M27.0002 554.144L60.1445 521L60.2617 521.117L60.0274 521.117L60.0274 587.171L27.0002 554.144Z" fill="#E5340B"/>
<path fill-rule="evenodd" clip-rule="evenodd" d="M329.142 554.142L352.061 577.061L329.142 599.979L329.142 554.142ZM329.142 599.979L329.061 600.061L328.979 599.979L329.142 599.979Z" fill="#FFE7BD"/>
<path fill-rule="evenodd" clip-rule="evenodd" d="M329.085 287.085L312.573 270.572L329.085 254.059L329.085 287.085ZM329.086 254.059L329.145 254L329.203 254.059L329.086 254.059Z" fill="#0B0835"/>
<path fill-rule="evenodd" clip-rule="evenodd" d="M329.214 553.502L308 532.289L329.214 511.076L329.214 553.502ZM329.214 511.075L329.289 511L329.364 511.075L329.214 511.075Z" fill="#3F8A8C"/>
<path fill-rule="evenodd" clip-rule="evenodd" d="M241.158 131L277.445 167.287L277.317 167.416L277.317 167.159L205 167.159L241.158 131Z" fill="#F28A0F"/>
</svg>
