<svg width="22" height="20" viewBox="0 0 22 20" fill="none" xmlns="http://www.w3.org/2000/svg">
<path fill-rule="evenodd" clip-rule="evenodd" d="M4.07045 14.2857C2.88688 14.2857 1.92759 13.3264 1.92759 12.1429C1.92759 10.96 2.88688 10 4.07045 10C5.25402 10 6.21331 10.96 6.21331 12.1429C6.21331 13.3264 5.25402 14.2857 4.07045 14.2857ZM4.78474 8.64358V0.714286C4.78474 0.32 4.46545 0 4.07045 0C3.67545 0 3.35617 0.32 3.35617 0.714286V8.64358C1.72617 8.9743 0.499023 10.415 0.499023 12.1429C0.499023 13.8707 1.72617 15.3114 3.35617 15.6421V19.2857C3.35617 19.6807 3.67545 20 4.07045 20C4.46545 20 4.78474 19.6807 4.78474 19.2857V15.6421C6.41474 15.3114 7.64188 13.8707 7.64188 12.1429C7.64188 10.415 6.41474 8.9743 4.78474 8.64358ZM11.2133 7.14286C10.0297 7.14286 9.07045 6.18357 9.07045 5C9.07045 3.81714 10.0297 2.85714 11.2133 2.85714C12.3969 2.85714 13.3562 3.81714 13.3562 5C13.3562 6.18357 12.3969 7.14286 11.2133 7.14286ZM11.9276 1.50072V0.714286C11.9276 0.32 11.6083 0 11.2133 0C10.8183 0 10.499 0.32 10.499 0.714286V1.50072C8.86902 1.83144 7.64188 3.27214 7.64188 5C7.64188 6.72786 8.86902 8.16856 10.499 8.49928V19.2857C10.499 19.6807 10.8183 20 11.2133 20C11.6083 20 11.9276 19.6807 11.9276 19.2857V8.49928C13.5576 8.16856 14.7847 6.72786 14.7847 5C14.7847 3.27214 13.5576 1.83144 11.9276 1.50072ZM18.3562 17.1429C17.1726 17.1429 16.2133 16.1836 16.2133 15C16.2133 13.8171 17.1726 12.8571 18.3562 12.8571C19.5397 12.8571 20.499 13.8171 20.499 15C20.499 16.1836 19.5397 17.1429 18.3562 17.1429ZM19.0704 11.5007V0.714286C19.0704 0.32 18.7512 0 18.3562 0C17.9612 0 17.6419 0.32 17.6419 0.714286V11.5007C16.0119 11.8314 14.7847 13.2721 14.7847 15C14.7847 16.7279 16.0119 18.1686 17.6419 18.4993V19.2857C17.6419 19.6807 17.9612 20 18.3562 20C18.7512 20 19.0704 19.6807 19.0704 19.2857V18.4993C20.7004 18.1686 21.9276 16.7279 21.9276 15C21.9276 13.2721 20.7004 11.8314 19.0704 11.5007Z" fill="white"/>
</svg>
