<svg width="68" height="115" viewBox="0 0 68 115" fill="none" xmlns="http://www.w3.org/2000/svg">
<path fill-rule="evenodd" clip-rule="evenodd" d="M35.1089 65.1984H4.73373V56.9144L35.1089 65.1984Z" fill="#0C5679"/>
<path fill-rule="evenodd" clip-rule="evenodd" d="M34.3195 94.7842C17.9797 94.7842 4.73373 81.5382 4.73373 65.1984H35.1089L62.9238 72.7842C59.5741 85.4485 48.0371 94.7842 34.3195 94.7842Z" fill="#0C5679"/>
<path fill-rule="evenodd" clip-rule="evenodd" d="M32.7965 29.5858H63.1716V37.8698L32.7965 29.5858Z" fill="#0C5679"/>
<path fill-rule="evenodd" clip-rule="evenodd" d="M33.5858 0C49.9256 0 63.1716 13.246 63.1716 29.5858H32.7965L4.98149 22C8.33121 9.33563 19.8683 0 33.5858 0Z" fill="#0C5679"/>
<path d="M4.74388 30.1543L50.274 42.7809C59.7213 45.4009 65.2559 55.1834 62.636 64.6307L17.1059 52.004C7.65856 49.3841 2.12391 39.6016 4.74388 30.1543Z" fill="#E5340B"/>
<path fill-rule="evenodd" clip-rule="evenodd" d="M34.3195 97.7628C32.0137 97.7628 29.7694 97.499 27.6154 97V102.44H9.15383C8.34569 102.44 7.54547 102.599 6.79885 102.908C6.05223 103.217 5.37384 103.671 4.8024 104.242C4.23096 104.814 3.77768 105.492 3.46842 106.239C3.15916 106.985 2.99998 107.785 2.99998 108.594C2.99998 109.402 3.15916 110.202 3.46842 110.949C3.77768 111.695 4.23096 112.374 4.8024 112.945C5.37384 113.516 6.05223 113.97 6.79885 114.279C7.54547 114.588 8.34569 114.747 9.15383 114.747H58.3846C59.1927 114.747 59.9929 114.588 60.7396 114.279C61.4862 113.97 62.1646 113.516 62.736 112.945C63.3075 112.374 63.7607 111.695 64.07 110.949C64.3793 110.202 64.5384 109.402 64.5384 108.594C64.5384 107.785 64.3793 106.985 64.07 106.239C63.7607 105.492 63.3075 104.814 62.736 104.242C62.1646 103.671 61.4862 103.217 60.7396 102.908C59.9929 102.599 59.1927 102.44 58.3846 102.44H39.9231V97.2329C38.1087 97.5807 36.2353 97.7628 34.3195 97.7628Z" fill="#0B0835"/>
</svg>
