<svg width="149" height="170" viewBox="0 0 149 170" fill="none" xmlns="http://www.w3.org/2000/svg">
<path fill-rule="evenodd" clip-rule="evenodd" d="M47.6631 98.3603C47.5852 85.2648 36.9452 74.6729 23.8313 74.6729C10.7174 74.6729 0.0774078 85.2648 -0.000465393 98.3603H47.6631Z" fill="#0B0835"/>
<path fill-rule="evenodd" clip-rule="evenodd" d="M95.3268 47.6641C90.7433 47.6913 87.0361 51.4153 87.0361 56.0052C87.0361 60.5951 90.7433 64.3191 95.3268 64.3463V47.6641Z" fill="#FFE7BD"/>
<path fill-rule="evenodd" clip-rule="evenodd" d="M11.915 62.756C11.915 43.0853 27.803 27.1254 47.4463 27.0088V62.757H11.915C11.915 62.7567 11.915 62.7563 11.915 62.756Z" fill="#FFE7BD"/>
<path fill-rule="evenodd" clip-rule="evenodd" d="M119.159 23.8311C136.208 23.8311 150.04 37.6009 150.141 54.6254L119.159 54.6254L119.159 23.8311C119.159 23.8311 119.159 23.8311 119.159 23.8311Z" fill="#E5340B"/>
<path fill-rule="evenodd" clip-rule="evenodd" d="M95.3266 47.4939V0H47.8327L95.3266 47.4939ZM47.8322 0H47.6631V0.169117L47.8322 0Z" fill="#E5340B"/>
<path fill-rule="evenodd" clip-rule="evenodd" d="M119.159 98.5049H133.509V98.4537L133.458 98.5043L119.159 84.2049V98.5049Z" fill="#F28A0F"/>
<path fill-rule="evenodd" clip-rule="evenodd" d="M47.6625 62.6299L83.4102 62.6299V62.5025L83.2831 62.6296L47.6625 27.009L47.6625 62.6299Z" fill="#3F8A8C"/>
<rect x="119.158" y="53.2246" width="30.9813" height="30.9813" fill="#3F8A8C"/>
<path d="M83.4106 77.8506C72.4423 77.8506 63.5508 86.7421 63.5508 97.7104H83.4106V77.8506Z" fill="#0B0835"/>
<path fill-rule="evenodd" clip-rule="evenodd" d="M103.27 97.7104C103.27 108.679 94.3789 117.57 83.4106 117.57V97.7104H103.27Z" fill="#F28A0F"/>
<path d="M83.4106 117.57C72.4423 117.57 63.5508 108.679 63.5508 97.7104C79.1209 97.7104 83.2782 110.95 83.4106 117.57Z" fill="#FFE7BD"/>
<path d="M103.27 97.7104C103.27 86.7421 94.3789 77.8506 83.4106 77.8506V97.7104H103.27Z" fill="#0B0835"/>
<path fill-rule="evenodd" clip-rule="evenodd" d="M83.4102 134.253C103.153 134.253 119.158 118.248 119.158 98.5049C138.901 98.5049 154.905 114.51 154.905 134.253C154.905 153.995 138.901 170 119.158 170C99.4149 170 83.4102 153.995 83.4102 134.253M83.4102 134.253C83.4102 134.253 83.4102 134.253 83.4102 134.253H83.4102Z" fill="#E5340B"/>
<rect x="119.158" y="170" width="23.8318" height="47.6636" transform="rotate(-90 119.158 170)" fill="#E5340B"/>
<path d="M47.6627 98.5049C27.9198 98.5049 11.915 114.51 11.915 134.253H47.6627V98.5049Z" fill="#F28A0F"/>
<path d="M47.6627 98.5049V134.253H83.4104C63.6675 134.253 47.6627 118.248 47.6627 98.5049Z" fill="#3F8A8C"/>
<path d="M83.4102 62.7568H47.6625V98.5045C47.6625 78.7616 63.6673 62.7568 83.4102 62.7568Z" fill="#E5340B"/>
<path d="M150.14 35.748V0.00038147L114.392 0.00038147C134.135 0.00038147 150.14 16.0052 150.14 35.748Z" fill="#0B0835"/>
</svg>
