<svg width="89" height="29" viewBox="0 0 89 29" fill="none" xmlns="http://www.w3.org/2000/svg">
<path d="M5.2534 0.263672H14.5776C14.618 0.273763 14.6382 0.293945 14.6382 0.324219V4.04785C14.6382 4.08822 14.618 4.1084 14.5776 4.1084H5.90428C4.94562 4.1084 4.31997 4.42627 4.02732 5.06201C3.9466 5.21338 3.88605 5.46061 3.84568 5.80371C3.84568 6.59082 4.28465 7.14079 5.16258 7.45361C5.30385 7.4738 5.4199 7.48389 5.51072 7.48389H10.1728C13.0286 7.48389 15.2235 8.7251 16.7573 11.2075C17.3527 12.368 17.6504 13.4124 17.6504 14.3408V15.1733C17.6504 16.7677 16.9541 18.347 15.5615 19.9111C13.9974 21.3037 12.4181 22 10.8237 22H0.0615044C0.0211398 22 0.000957489 21.9798 0.000957489 21.9395V18.2158C0.0110486 18.1755 0.0312309 18.1553 0.0615044 18.1553H10.3242C11.9186 18.1553 13.0387 17.348 13.6846 15.7334C13.7653 15.2894 13.8056 14.9715 13.8056 14.7798C13.8056 13.4074 13.1396 12.373 11.8076 11.6768C11.3939 11.4648 10.8792 11.3589 10.2637 11.3589H5.48045C3.62368 11.3589 2.08478 10.5112 0.86375 8.81592C0.288555 7.85726 0.000957489 6.92383 0.000957489 6.01562V5.51611C0.000957489 4.33545 0.490378 3.16992 1.46922 2.01953C2.68016 0.848958 3.94155 0.263672 5.2534 0.263672ZM25.8987 0.339355H26.1409C26.8977 0.339355 27.483 0.77832 27.8967 1.65625C27.9573 1.87826 27.9875 2.04476 27.9875 2.15576V2.39795C27.9875 3.15479 27.5688 3.73503 26.7312 4.13867C26.5294 4.2194 26.3225 4.25977 26.1106 4.25977H25.8684C25.1418 4.25977 24.5717 3.8208 24.158 2.94287C24.0974 2.75114 24.0671 2.57959 24.0671 2.42822V2.18604C24.0671 1.41911 24.5061 0.833822 25.384 0.430176C25.5758 0.369629 25.7473 0.339355 25.8987 0.339355ZM24.158 7.5293H27.8967C27.9371 7.53939 27.9573 7.55957 27.9573 7.58984V21.9395C27.9573 21.9798 27.9371 22 27.8967 22H24.158C24.1176 22 24.0974 21.9798 24.0974 21.9395V7.58984C24.1075 7.54948 24.1277 7.5293 24.158 7.5293ZM41.6245 7.4082H42.1392C44.0161 7.4082 45.7367 8.20036 47.3008 9.78467C48.5622 11.2479 49.1929 12.8574 49.1929 14.6133V21.9395C49.1929 21.9798 49.1727 22 49.1323 22H45.3633C45.3229 22 45.3027 21.9798 45.3027 21.9395V14.6133C45.3027 13.3822 44.6821 12.3932 43.4409 11.6465C42.9364 11.4144 42.4823 11.2983 42.0786 11.2983H41.9272C41.9071 11.2983 41.897 11.2882 41.897 11.2681L41.8364 11.2983H41.7153C40.575 11.2983 39.6265 11.8988 38.8696 13.0996C38.5972 13.5335 38.4609 14.2954 38.4609 15.3853V21.9395C38.4609 21.9798 38.4408 22 38.4004 22H34.6616C34.6213 22 34.6011 21.9798 34.6011 21.9395V14.4619C34.6011 12.6253 35.373 10.9149 36.917 9.33057C38.4408 8.04899 40.0099 7.4082 41.6245 7.4082ZM62.7844 6.60596H63.3142C65.171 6.60596 66.8764 7.39307 68.4304 8.96729C69.6817 10.4204 70.3074 12.0148 70.3074 13.7505V21.1221C70.3074 23.4935 69.263 25.4764 67.1741 27.0708C65.8723 27.9084 64.5403 28.3271 63.178 28.3271H58.8943C58.8539 28.3271 58.8338 28.307 58.8338 28.2666V24.5278C58.8338 24.4875 58.8539 24.4673 58.8943 24.4673H63.1477C64.3486 24.4673 65.3224 23.8618 66.0691 22.6509C66.3113 22.1362 66.4324 21.6367 66.4324 21.1523V20.2593C65.3627 20.8143 64.2477 21.0918 63.0872 21.0918H62.9661C61.1799 21.0918 59.5553 20.4359 58.0921 19.124C56.5784 17.5902 55.8215 15.915 55.8215 14.0986V13.5688C55.8215 11.7625 56.5986 10.0672 58.1526 8.48291C59.6562 7.23161 61.2001 6.60596 62.7844 6.60596ZM62.9964 10.4658H62.8753C61.7551 10.4658 60.8167 11.0612 60.0598 12.252C59.7874 12.8372 59.6511 13.367 59.6511 13.8413C59.6511 15.1632 60.3071 16.1875 61.6189 16.9141C62.0932 17.1159 62.5423 17.2168 62.9661 17.2168H63.1174C64.3687 17.2168 65.3526 16.6063 66.0691 15.3853C66.3113 14.911 66.4324 14.4165 66.4324 13.9019V13.7505C66.4324 12.5295 65.8219 11.5506 64.6008 10.814C64.0963 10.5819 63.6422 10.4658 63.2385 10.4658H63.0872C63.067 10.4658 63.0569 10.4557 63.0569 10.4355L62.9964 10.4658ZM76.9815 0.278809H80.69C80.7303 0.2889 80.7505 0.309082 80.7505 0.339355V14.144C80.7505 15.355 80.9574 16.2026 81.3711 16.687C82.0371 17.6759 83.0614 18.1704 84.4439 18.1704H88.3037C88.3441 18.1704 88.3643 18.1906 88.3643 18.231V21.9395C88.3643 21.9798 88.3441 22 88.3037 22H83.8535C82.1986 22 80.6143 21.3239 79.1006 19.9717C77.6475 18.4378 76.9209 16.793 76.9209 15.0371V0.339355C76.931 0.298991 76.9512 0.278809 76.9815 0.278809Z" fill="#0B0835"/>
</svg>
