<svg width="389" height="609" viewBox="0 0 389 609" fill="none" xmlns="http://www.w3.org/2000/svg">
<rect x="60" y="69" width="269" height="480" fill="white"/>
<path d="M120 129H60L60 189C60 155.863 86.8629 129 120 129Z" fill="#FFE7BD"/>
<path fill-rule="evenodd" clip-rule="evenodd" d="M300 519C283.431 519 270 532.431 270 549H330C330 532.431 316.569 519 300 519Z" fill="#E5340B"/>
<path fill-rule="evenodd" clip-rule="evenodd" d="M299 549C282.431 549 269 562.431 269 579H329C329 562.431 315.569 549 299 549Z" fill="#0C5679"/>
<path d="M329.5 456C304.371 456 284 476.371 284 501.5L329.5 501.5L329.5 456Z" fill="#E5340B"/>
<path d="M284 501.5C284 526.629 304.371 547 329.5 547L329.5 501.5L284 501.5Z" fill="#F28A0F"/>
<path d="M329 249.001C345.569 249.001 359.001 235.569 359.001 219H329V249.001Z" fill="#F28A0F"/>
<path d="M359.001 219C359.001 202.432 345.569 189 329 189V219H359.001Z" fill="#0B0835"/>
<path d="M217.001 549.001C217.001 532.432 203.569 519 187 519L187 549.001L217.001 549.001Z" fill="#0B0835"/>
<path d="M187 519C170.432 519 157 532.432 157 549.001L187 549.001L187 519Z" fill="#3F8A8C"/>
<path d="M59.5 363C76.3447 363 90 349.345 90 332.5H59.5L59.5 363Z" fill="#FFE7BD"/>
<path d="M90 332.5C90 315.655 76.3447 302 59.5 302V332.5H90Z" fill="#3F8A8C"/>
<path fill-rule="evenodd" clip-rule="evenodd" d="M120 99V69H90C73.4315 69 60 82.4315 60 99C60 115.569 73.4315 129 90 129C106.569 129 120 115.569 120 99Z" fill="#E5340B"/>
<path fill-rule="evenodd" clip-rule="evenodd" d="M60 39L60 69H90C106.569 69 120 55.5685 120 39C120 22.4315 106.569 9 90 9C73.4315 9 60 22.4315 60 39Z" fill="#3F8A8C"/>
<path fill-rule="evenodd" clip-rule="evenodd" d="M277 34.5V69H311.5C330.554 69 346 53.5538 346 34.5C346 15.4462 330.554 0 311.5 0C292.446 0 277 15.4462 277 34.5Z" fill="#0B0835"/>
<path d="M329.5 156C354.077 156 374 136.077 374 111.5H329.5V156Z" fill="white"/>
<path d="M329.5 67C354.077 67 374 86.9233 374 111.5C338.756 111.5 329.648 81.8333 329.5 67Z" fill="#F28A0F"/>
<path d="M285 111.5C285 136.077 304.923 156 329.5 156V111.5V67C304.923 67 285 86.9233 285 111.5Z" fill="#E5340B"/>
<path d="M0 489C0 455.863 26.8629 429 60 429C60 449 48 489 0 489Z" fill="#E5340B"/>
<path d="M120 489C120 455.863 93.1371 429 60 429V489H120Z" fill="#F28A0F"/>
<path d="M0 489C0 522.137 26.8629 549 60 549V548.159V489H0Z" fill="#3F8A8C"/>
<path d="M60 549C26.8629 549 0 522.137 0 489V549H60Z" fill="#3F8A8C"/>
<path fill-rule="evenodd" clip-rule="evenodd" d="M120 489C120 522.137 93.1371 549 60 549V548.159C60.1659 527.901 72.2696 489 120 489Z" fill="#FFE7BD"/>
<path d="M60 302C26.8629 302 0 275.137 0 242C20 242.4 60 254.96 60 302Z" fill="#0B0835"/>
<path d="M60 182C26.8629 182 0 208.863 0 242H60V182Z" fill="#0B0835"/>
<path d="M329 369C362.137 369 389 342.137 389 309C369 309.4 329 321.96 329 369Z" fill="#FFE7BD"/>
<path d="M329 249C362.137 249 389 275.863 389 309H329V249Z" fill="#FFE7BD"/>
<path fill-rule="evenodd" clip-rule="evenodd" d="M120 69.427L162.426 27.0005L204.853 69.427L120 69.427ZM204.853 69.4271L205.004 69.5781L204.853 69.7291L204.853 69.4271Z" fill="#FFE7BD"/>
<path fill-rule="evenodd" clip-rule="evenodd" d="M157.004 548.577L114.578 591.003L72.1511 548.577L157.004 548.577ZM72.151 548.577L72 548.426L72.151 548.275L72.151 548.577Z" fill="#F28A0F"/>
<path fill-rule="evenodd" clip-rule="evenodd" d="M213.787 605.213L157 548.426L157.202 548.224L157.202 548.627L270.373 548.627L213.787 605.213Z" fill="#FFE7BD"/>
<path fill-rule="evenodd" clip-rule="evenodd" d="M60.1711 429.171L27.1443 396.144L60.1711 363.117L60.1711 429.171ZM60.1715 363.117L60.2886 363L60.4057 363.117L60.1715 363.117Z" fill="#E5340B"/>
<path fill-rule="evenodd" clip-rule="evenodd" d="M329.143 456.142L352.061 479.061L329.143 501.979L329.143 456.142ZM329.143 501.979L329.061 502.061L328.98 501.979L329.143 501.979Z" fill="#FFE7BD"/>
<path fill-rule="evenodd" clip-rule="evenodd" d="M329.085 189.085L312.572 172.572L329.085 156.059L329.085 189.085ZM329.085 156.059L329.144 156L329.203 156.059L329.085 156.059Z" fill="#0B0835"/>
<path fill-rule="evenodd" clip-rule="evenodd" d="M286.212 412.365L329.578 369L329.731 369.154L329.424 369.154L329.424 455.577L286.212 412.365Z" fill="#3F8A8C"/>
<path fill-rule="evenodd" clip-rule="evenodd" d="M241.158 33.0003L277.445 69.2871L277.317 69.4158L277.317 69.1587L205 69.1587L241.158 33.0003Z" fill="#F28A0F"/>
</svg>
