<svg width="22" height="20" viewBox="0 0 22 20" fill="none" xmlns="http://www.w3.org/2000/svg">
<path fill-rule="evenodd" clip-rule="evenodd" d="M4.07033 14.2857C2.88676 14.2857 1.92747 13.3264 1.92747 12.1429C1.92747 10.96 2.88676 10 4.07033 10C5.2539 10 6.21319 10.96 6.21319 12.1429C6.21319 13.3264 5.2539 14.2857 4.07033 14.2857ZM4.78462 8.64358V0.714286C4.78462 0.32 4.46533 0 4.07033 0C3.67533 0 3.35604 0.32 3.35604 0.714286V8.64358C1.72604 8.9743 0.498901 10.415 0.498901 12.1429C0.498901 13.8707 1.72604 15.3114 3.35604 15.6421V19.2857C3.35604 19.6807 3.67533 20 4.07033 20C4.46533 20 4.78462 19.6807 4.78462 19.2857V15.6421C6.41461 15.3114 7.64176 13.8707 7.64176 12.1429C7.64176 10.415 6.41461 8.9743 4.78462 8.64358ZM11.2132 7.14286C10.0296 7.14286 9.07033 6.18357 9.07033 5C9.07033 3.81714 10.0296 2.85714 11.2132 2.85714C12.3968 2.85714 13.356 3.81714 13.356 5C13.356 6.18357 12.3968 7.14286 11.2132 7.14286ZM11.9275 1.50072V0.714286C11.9275 0.32 11.6082 0 11.2132 0C10.8182 0 10.4989 0.32 10.4989 0.714286V1.50072C8.8689 1.83144 7.64176 3.27214 7.64176 5C7.64176 6.72786 8.8689 8.16856 10.4989 8.49928V19.2857C10.4989 19.6807 10.8182 20 11.2132 20C11.6082 20 11.9275 19.6807 11.9275 19.2857V8.49928C13.5575 8.16856 14.7846 6.72786 14.7846 5C14.7846 3.27214 13.5575 1.83144 11.9275 1.50072ZM18.356 17.1429C17.1725 17.1429 16.2132 16.1836 16.2132 15C16.2132 13.8171 17.1725 12.8571 18.356 12.8571C19.5396 12.8571 20.4989 13.8171 20.4989 15C20.4989 16.1836 19.5396 17.1429 18.356 17.1429ZM19.0703 11.5007V0.714286C19.0703 0.32 18.751 0 18.356 0C17.961 0 17.6418 0.32 17.6418 0.714286V11.5007C16.0118 11.8314 14.7846 13.2721 14.7846 15C14.7846 16.7279 16.0118 18.1686 17.6418 18.4993V19.2857C17.6418 19.6807 17.961 20 18.356 20C18.751 20 19.0703 19.6807 19.0703 19.2857V18.4993C20.7003 18.1686 21.9275 16.7279 21.9275 15C21.9275 13.2721 20.7003 11.8314 19.0703 11.5007Z" fill="#0C5679"/>
</svg>
