<svg width="120" height="150" viewBox="0 0 120 150" fill="none" xmlns="http://www.w3.org/2000/svg">
<path d="M30 180C46.5685 180 60 166.569 60 150H30V180Z" fill="#FFE7BD"/>
<path d="M0 150C0 166.569 13.4315 180 30 180V150V120C13.4315 120 0 133.431 0 150Z" fill="#FFE7BD"/>
<path d="M30 120C46.5685 120 60 133.431 60 150C36.24 150 30.1 130 30 120Z" fill="#0B0835"/>
<rect y="60" width="30" height="60" fill="#F28A0F"/>
<path fill-rule="evenodd" clip-rule="evenodd" d="M90 150V120L60 150H90Z" fill="#3F8A8C"/>
<path fill-rule="evenodd" clip-rule="evenodd" d="M-3.8147e-06 60L60 60L-3.8147e-06 0L-3.8147e-06 60Z" fill="#3F8A8C"/>
<path fill-rule="evenodd" clip-rule="evenodd" d="M90 150H120L90 120V150Z" fill="#0B0835"/>
<path fill-rule="evenodd" clip-rule="evenodd" d="M30 120C46.5685 120 60 106.569 60 90C60 73.4315 46.5685 60 30 60V120Z" fill="#F28A0F"/>
<path fill-rule="evenodd" clip-rule="evenodd" d="M120 90V60L90 60C73.4315 60 60 73.4315 60 90C60 106.569 73.4315 120 90 120C106.569 120 120 106.569 120 90Z" fill="#E5340B"/>
</svg>
