<svg width="20" height="18" viewBox="0 0 20 18" fill="none" xmlns="http://www.w3.org/2000/svg">
<path fill-rule="evenodd" clip-rule="evenodd" d="M3.33332 2.5C3.15651 2.5 2.98694 2.57024 2.86192 2.69526C2.73689 2.82029 2.66666 2.98986 2.66666 3.16667V14.8333C2.66666 15.0101 2.73689 15.1797 2.86192 15.3047C2.98694 15.4298 3.15651 15.5 3.33332 15.5H7.33332V2.5H3.33332ZM1.4477 1.28105C1.9478 0.780951 2.62608 0.5 3.33332 0.5H8.33332C8.88561 0.5 9.33332 0.947715 9.33332 1.5V16.5C9.33332 17.0523 8.88561 17.5 8.33332 17.5H3.33332C2.62608 17.5 1.9478 17.219 1.4477 16.719C0.947608 16.2189 0.666656 15.5406 0.666656 14.8333V3.16667C0.666656 2.45942 0.947608 1.78115 1.4477 1.28105ZM10.6667 1.5C10.6667 0.947715 11.1144 0.5 11.6667 0.5H16.6667C17.3739 0.5 18.0522 0.780952 18.5523 1.28105C19.0524 1.78115 19.3333 2.45942 19.3333 3.16667V7.33333C19.3333 7.88562 18.8856 8.33333 18.3333 8.33333H11.6667C11.1144 8.33333 10.6667 7.88562 10.6667 7.33333V1.5ZM12.6667 2.5V6.33333H17.3333V3.16667C17.3333 2.98986 17.2631 2.82029 17.1381 2.69526C17.013 2.57024 16.8435 2.5 16.6667 2.5H12.6667ZM10.6667 10.6667C10.6667 10.1144 11.1144 9.66667 11.6667 9.66667H18.3333C18.8856 9.66667 19.3333 10.1144 19.3333 10.6667V14.8333C19.3333 15.5406 19.0524 16.2189 18.5523 16.719C18.0522 17.219 17.3739 17.5 16.6667 17.5H11.6667C11.1144 17.5 10.6667 17.0523 10.6667 16.5V10.6667ZM12.6667 11.6667V15.5H16.6667C16.8435 15.5 17.013 15.4298 17.1381 15.3047C17.2631 15.1797 17.3333 15.0101 17.3333 14.8333V11.6667H12.6667Z" fill="#0C5679"/>
</svg>
